<mxfile host="app.diagrams.net" modified="2024-02-15T21:46:56.310Z" agent="Mozilla/5.0 (Windows NT 10.0; Win64; x64) AppleWebKit/537.36 (KHTML, like Gecko) Chrome/121.0.0.0 Safari/537.36" version="23.1.5" etag="IGQEvX5AiIwE1zgqsdTF" type="github">
  <diagram name="Page-1" id="97Dd-L1AC9Dj8HOY-7wl">
    <mxGraphModel>
      <root>
        <mxCell id="0" />
        <mxCell id="1" parent="0" />
      </root>
    </mxGraphModel>
  </diagram>
</mxfile>
